<?xml version="1.0" standalone="no"?>
<!DOCTYPE svg PUBLIC "-//W3C//DTD SVG 20010904//EN"
 "http://www.w3.org/TR/2001/REC-SVG-20010904/DTD/svg10.dtd">
<svg version="1.0" xmlns="http://www.w3.org/2000/svg"
 width="100.000000pt" height="23.000000pt" viewBox="0 0 100.000000 23.000000"
 preserveAspectRatio="xMidYMid meet">

<g transform="translate(0.000000,23.000000) scale(0.100000,-0.100000)"
fill="#000000" stroke="none">
<path d="M132 215 c-8 -10 -9 -15 -2 -15 7 0 10 -31 8 -92 l-3 -93 -65 -6
c-52 -4 -41 -6 58 -7 l123 -2 -13 23 c-10 19 -13 20 -16 4 -4 -20 -30 -22 -54
-3 -19 14 -25 76 -8 76 6 0 10 23 10 50 0 47 2 50 25 50 24 0 25 -3 27 -57 l1
-58 6 55 6 55 256 3 257 2 6 -22 c7 -29 8 -116 0 -145 -6 -20 -14 -23 -83 -26
-42 -1 14 -3 124 -4 148 0 185 2 141 8 -32 5 -65 14 -72 20 -11 9 -14 7 -14
-7 0 -16 -2 -17 -11 -4 -7 10 -12 11 -15 4 -3 -6 -16 -9 -29 -6 -24 4 -25 7
-25 87 l0 82 30 6 c21 5 28 11 24 22 -7 17 -99 22 -109 5 -3 -5 -13 -10 -21
-10 -9 0 -12 5 -8 11 5 8 1 8 -14 0 -26 -14 -95 -15 -87 -1 3 6 1 10 -4 10 -6
0 -11 -4 -11 -10 0 -6 -30 -10 -70 -10 -40 0 -70 4 -70 10 0 6 -5 10 -11 10
-5 0 -7 -5 -4 -10 7 -12 -113 -11 -130 0 -17 11 -56 10 -49 -2 4 -6 -1 -6 -14
1 -27 14 -54 15 -32 1 13 -8 12 -10 -2 -10 -10 0 -18 5 -18 10 0 15 -23 11
-38 -5z"/>
<path d="M838 165 c4 -73 22 -90 22 -20 l0 45 58 -2 57 -1 -50 -7 c-50 -6 -50
-6 -21 -18 16 -7 43 -10 62 -6 31 6 34 10 34 40 l0 34 -82 0 -83 0 3 -65z"/>
<path d="M293 3 c15 -2 37 -2 50 0 12 2 0 4 -28 4 -27 0 -38 -2 -22 -4z"/>
</g>
</svg>
