<?xml version="1.0" encoding="UTF-8"?>
<!DOCTYPE svg PUBLIC "-//W3C//DTD SVG 1.1//EN" "http://www.w3.org/Graphics/SVG/1.1/DTD/svg11.dtd">
<svg xmlns="http://www.w3.org/2000/svg" version="1.1" width="354px" height="132px" style="shape-rendering:geometricPrecision; text-rendering:geometricPrecision; image-rendering:optimizeQuality; fill-rule:evenodd; clip-rule:evenodd" xmlns:xlink="http://www.w3.org/1999/xlink">
<g><path style="opacity:0.935" fill="#696969" d="M 24.5,35.5 C 24.6267,37.9401 24.96,40.6068 25.5,43.5C 20.07,43.1977 15.4033,44.8643 11.5,48.5C 10.5958,45.2874 10.5958,41.9541 11.5,38.5C 15.3104,35.8393 19.6437,34.8393 24.5,35.5 Z"/></g>
<g><path style="opacity:0.927" fill="#6d6d6d" d="M 24.5,35.5 C 25.5,35.5 26.5,35.5 27.5,35.5C 27.5,38.5 27.5,41.5 27.5,44.5C 26.5084,44.6716 25.8417,44.3382 25.5,43.5C 24.96,40.6068 24.6267,37.9401 24.5,35.5 Z"/></g>
<g><path style="opacity:0.936" fill="#737373" d="M 27.5,35.5 C 28.4916,35.3284 29.1583,35.6618 29.5,36.5C 29.5987,39.2372 29.2653,41.9039 28.5,44.5C 28.1667,44.5 27.8333,44.5 27.5,44.5C 27.5,41.5 27.5,38.5 27.5,35.5 Z"/></g>
<g><path style="opacity:0.874" fill="#7b7b7b" d="M 29.5,36.5 C 30.4916,36.3284 31.1583,36.6618 31.5,37.5C 31.5,40.5 31.5,43.5 31.5,46.5C 30.2905,46.0679 29.2905,45.4013 28.5,44.5C 29.2653,41.9039 29.5987,39.2372 29.5,36.5 Z"/></g>
<g><path style="opacity:0.864" fill="#868686" d="M 31.5,37.5 C 32.4916,37.3284 33.1583,37.6618 33.5,38.5C 33.5,41.8333 33.5,45.1667 33.5,48.5C 32.5,48.1667 31.8333,47.5 31.5,46.5C 31.5,43.5 31.5,40.5 31.5,37.5 Z"/></g>
<g><path style="opacity:0.882" fill="#6d6d6d" d="M 11.5,38.5 C 10.5958,41.9541 10.5958,45.2874 11.5,48.5C 10.5,50.5 9.5,52.5 8.5,54.5C 7.51511,50.3656 7.18178,46.0323 7.5,41.5C 8.26231,39.7376 9.59565,38.7376 11.5,38.5 Z"/></g>
<g><path style="opacity:0.979" fill="#919191" d="M 33.5,38.5 C 34.4916,38.3284 35.1583,38.6618 35.5,39.5C 35.335,42.6529 35.0017,45.9863 34.5,49.5C 33.8333,49.5 33.5,49.1667 33.5,48.5C 33.5,45.1667 33.5,41.8333 33.5,38.5 Z"/></g>
<g><path style="opacity:0.892" fill="#999999" d="M 35.5,39.5 C 36.1667,39.5 36.5,39.8333 36.5,40.5C 36.5,44.5 36.5,48.5 36.5,52.5C 35.5987,51.7095 34.9321,50.7095 34.5,49.5C 35.0017,45.9863 35.335,42.6529 35.5,39.5 Z"/></g>
<g><path style="opacity:0.924" fill="#737373" d="M 7.5,41.5 C 7.18178,46.0323 7.51511,50.3656 8.5,54.5C 7.78138,56.7638 7.44805,59.0971 7.5,61.5C 6.5,61.5 5.5,61.5 4.5,61.5C 4.5,55.8333 4.5,50.1667 4.5,44.5C 5.16667,43.1667 6.16667,42.1667 7.5,41.5 Z"/></g>
<g><path style="opacity:0.902" fill="#afafaf" d="M 38.5,41.5 C 39.5,41.8333 40.1667,42.5 40.5,43.5C 39.5104,49.31 39.1771,55.31 39.5,61.5C 39.1667,61.5 38.8333,61.5 38.5,61.5C 38.5,54.8333 38.5,48.1667 38.5,41.5 Z"/></g>
<g><path style="opacity:0.856" fill="#797979" d="M 4.5,44.5 C 4.5,50.1667 4.5,55.8333 4.5,61.5C 2.83333,61.5 1.16667,61.5 -0.5,61.5C -0.5,58.8333 -0.5,56.1667 -0.5,53.5C 0.372369,50.0912 2.03904,47.0912 4.5,44.5 Z"/></g>
<g><path style="opacity:0.916" fill="#a5a5a5" d="M 36.5,40.5 C 37.4916,40.3284 38.1583,40.6618 38.5,41.5C 38.5,48.1667 38.5,54.8333 38.5,61.5C 37.525,58.6888 36.8583,55.6888 36.5,52.5C 36.5,48.5 36.5,44.5 36.5,40.5 Z"/></g>
<g><path style="opacity:0.937" fill="#bbbbbb" d="M 40.5,43.5 C 40.8333,44.1667 41.1667,44.8333 41.5,45.5C 41.5,50.8333 41.5,56.1667 41.5,61.5C 40.8333,61.5 40.1667,61.5 39.5,61.5C 39.1771,55.31 39.5104,49.31 40.5,43.5 Z"/></g>
<g><path style="opacity:0.871" fill="#fefffe" d="M 68.5,45.5 C 77.535,44.1733 83.535,47.6733 86.5,56C 83.5,56.6667 80.5,56.6667 77.5,56C 74.2828,51.6485 70.9495,51.4819 67.5,55.5C 68.0402,56.7481 68.7069,57.9148 69.5,59C 75.3477,60.1672 80.5143,62.6672 85,66.5C 88.129,73.4115 86.2957,78.5782 79.5,82C 71.7375,84.0947 65.2375,82.2613 60,76.5C 59.5065,74.8659 59.3398,73.1992 59.5,71.5C 62.1873,71.3359 64.854,71.5026 67.5,72C 70.9088,77.7468 74.5754,77.9135 78.5,72.5C 78.0814,71.3279 77.4147,70.3279 76.5,69.5C 71.7259,67.9637 67.0592,66.1304 62.5,64C 57.0932,55.3643 59.0932,49.1976 68.5,45.5 Z"/></g>
<g><path style="opacity:0.867" fill="#fefffe" d="M 248.5,45.5 C 255.561,44.4562 261.061,46.7895 265,52.5C 265.49,53.7932 265.657,55.1266 265.5,56.5C 262.428,56.8174 259.428,56.4841 256.5,55.5C 254.912,52.7429 252.579,51.9096 249.5,53C 246.833,55 246.833,57 249.5,59C 253.09,60.5302 256.757,61.8635 260.5,63C 266.774,66.932 267.94,72.0986 264,78.5C 257.19,83.2196 250.023,83.7196 242.5,80C 235.906,72.3733 237.573,69.8733 247.5,72.5C 250.991,77.7771 254.324,77.7771 257.5,72.5C 257.471,70.9707 256.804,69.804 255.5,69C 249.641,67.8304 244.474,65.3304 240,61.5C 237.393,53.2744 240.226,47.9411 248.5,45.5 Z"/></g>
<g><path style="opacity:0.881" fill="#fefffe" d="M 272.5,46.5 C 275.167,46.5 277.833,46.5 280.5,46.5C 280.5,48.8333 280.5,51.1667 280.5,53.5C 282.5,53.5 284.5,53.5 286.5,53.5C 286.5,55.8333 286.5,58.1667 286.5,60.5C 284.5,60.5 282.5,60.5 280.5,60.5C 280.5,65.5 280.5,70.5 280.5,75.5C 282.5,75.5 284.5,75.5 286.5,75.5C 286.5,77.8333 286.5,80.1667 286.5,82.5C 281.235,83.4294 276.735,82.0961 273,78.5C 272.501,72.5092 272.334,66.5092 272.5,60.5C 271.167,60.5 269.833,60.5 268.5,60.5C 268.5,58.1667 268.5,55.8333 268.5,53.5C 269.833,53.5 271.167,53.5 272.5,53.5C 272.5,51.1667 272.5,48.8333 272.5,46.5 Z"/></g>
<g><path style="opacity:0.941" fill="#cacaca" d="M 41.5,45.5 C 42.6737,46.5137 43.3404,47.847 43.5,49.5C 43.7633,53.6002 43.4299,57.6002 42.5,61.5C 42.1667,61.5 41.8333,61.5 41.5,61.5C 41.5,56.1667 41.5,50.8333 41.5,45.5 Z"/></g>
<g><path style="opacity:0.855" fill="#fefffe" d="M 98.5,53.5 C 110.422,51.1217 117.422,55.7884 119.5,67.5C 119.392,68.4419 119.059,69.2753 118.5,70C 111.5,70.3333 104.5,70.6667 97.5,71C 98.8059,74.1391 101.139,75.9724 104.5,76.5C 107.522,74.7469 110.689,73.4135 114,72.5C 115.5,72.8333 117,73.1667 118.5,73.5C 114.335,82.0491 107.668,84.8825 98.5,82C 90.8782,78.1672 88.0448,72.0006 90,63.5C 91.2613,58.7452 94.0947,55.4118 98.5,53.5 Z M 102.5,59.5 C 106.227,59.1951 108.894,60.6951 110.5,64C 106.459,64.8265 102.459,64.6599 98.5,63.5C 99.5487,61.7844 100.882,60.4511 102.5,59.5 Z"/></g>
<g><path style="opacity:0.877" fill="#fefffe" d="M 129.5,53.5 C 133.514,53.3345 137.514,53.5012 141.5,54C 146.201,55.5284 148.868,58.6951 149.5,63.5C 146.428,63.8174 143.428,63.4841 140.5,62.5C 137.456,58.6391 134.29,58.6391 131,62.5C 127.996,68.7171 129.496,73.3838 135.5,76.5C 137.565,76.047 139.232,75.047 140.5,73.5C 143.428,72.5159 146.428,72.1826 149.5,72.5C 147.842,79.8104 143.175,83.477 135.5,83.5C 121.445,80.0506 117.612,71.7172 124,58.5C 125.73,56.5981 127.563,54.9314 129.5,53.5 Z"/></g>
<g><path style="opacity:0.894" fill="#fefffe" d="M 153.5,53.5 C 156.167,53.5 158.833,53.5 161.5,53.5C 161.334,59.5092 161.501,65.5092 162,71.5C 164.053,75.2916 167.219,76.4582 171.5,75C 172.126,74.2496 172.626,73.4162 173,72.5C 173.5,66.1754 173.666,59.8421 173.5,53.5C 176.167,53.5 178.833,53.5 181.5,53.5C 181.5,63.1667 181.5,72.8333 181.5,82.5C 178.289,82.988 175.456,82.3213 173,80.5C 166.221,83.8912 160.221,82.8912 155,77.5C 153.599,69.5852 153.099,61.5852 153.5,53.5 Z"/></g>
<g><path style="opacity:0.871" fill="#fefffe" d="M 187.5,53.5 C 190.167,53.5 192.833,53.5 195.5,53.5C 195.351,54.552 195.517,55.552 196,56.5C 198.305,54.0695 201.138,53.0695 204.5,53.5C 204.5,56.1667 204.5,58.8333 204.5,61.5C 201.728,61.22 199.228,61.8866 197,63.5C 195.63,69.7416 195.13,76.0749 195.5,82.5C 192.833,82.5 190.167,82.5 187.5,82.5C 187.5,72.8333 187.5,63.1667 187.5,53.5 Z"/></g>
<g><path style="opacity:0.859" fill="#fefffe" d="M 215.5,53.5 C 229.037,51.3825 235.703,57.0492 235.5,70.5C 228.492,70.3337 221.492,70.5004 214.5,71C 217.695,77.186 221.695,77.8526 226.5,73C 229.554,72.1786 232.554,72.3452 235.5,73.5C 229.649,83.4633 221.649,85.63 211.5,80C 205.874,73.459 205.04,66.2923 209,58.5C 210.965,56.4497 213.132,54.783 215.5,53.5 Z M 219.5,59.5 C 223.139,59.4225 225.806,60.9225 227.5,64C 223.459,64.8265 219.459,64.6599 215.5,63.5C 216.549,61.7844 217.882,60.4511 219.5,59.5 Z"/></g>
<g><path style="opacity:0.885" fill="#fefffe" d="M 296.5,53.5 C 300.182,53.3347 303.848,53.5014 307.5,54C 308.931,54.4652 310.097,55.2986 311,56.5C 311.483,55.552 311.649,54.552 311.5,53.5C 314.167,53.5 316.833,53.5 319.5,53.5C 319.5,63.1667 319.5,72.8333 319.5,82.5C 316.833,82.5 314.167,82.5 311.5,82.5C 311.649,81.448 311.483,80.448 311,79.5C 304.49,84.4761 298.157,84.1427 292,78.5C 286.41,68.7757 287.91,60.4424 296.5,53.5 Z M 301.5,60.5 C 309.095,60.2654 312.262,63.932 311,71.5C 308.442,75.2116 304.942,76.3783 300.5,75C 296.285,69.7195 296.618,64.8862 301.5,60.5 Z"/></g>
<g><path style="opacity:0.874" fill="#fefffe" d="M 353.5,53.5 C 353.5,54.5 353.5,55.5 353.5,56.5C 347.468,68.8979 341.802,81.5646 336.5,94.5C 333.5,95.8333 330.5,95.8333 327.5,94.5C 329.774,90.2864 331.774,85.9531 333.5,81.5C 329.432,72.2891 325.765,62.9558 322.5,53.5C 325.572,53.1826 328.572,53.5159 331.5,54.5C 333.667,60.1667 335.833,65.8333 338,71.5C 340.592,65.9776 342.925,60.3109 345,54.5C 347.719,53.5562 350.552,53.2229 353.5,53.5 Z"/></g>
<g><path style="opacity:0.895" fill="#d6d6d6" d="M 43.5,49.5 C 44.2216,49.9175 44.7216,50.5842 45,51.5C 45.4983,54.8168 45.665,58.1501 45.5,61.5C 44.5,61.5 43.5,61.5 42.5,61.5C 43.4299,57.6002 43.7633,53.6002 43.5,49.5 Z"/></g>
<g><path style="opacity:0.913" fill="#797979" d="M -0.5,65.5 C -0.5,65.1667 -0.5,64.8333 -0.5,64.5C 0.833333,64.5 2.16667,64.5 3.5,64.5C 4.369,68.2782 4.70233,71.9449 4.5,75.5C 2.83333,75.5 1.16667,75.5 -0.5,75.5C -0.5,74.8333 -0.5,74.1667 -0.5,73.5C 0.238911,73.631 0.905578,73.4643 1.5,73C 0.93186,71.7044 0.93186,70.2044 1.5,68.5C 1.36015,66.9704 0.693482,65.9704 -0.5,65.5 Z"/></g>
<g><path style="opacity:0.91" fill="#737373" d="M 3.5,64.5 C 4.83333,64.5 6.16667,64.5 7.5,64.5C 7.5,68.1667 7.5,71.8333 7.5,75.5C 6.5,75.5 5.5,75.5 4.5,75.5C 4.70233,71.9449 4.369,68.2782 3.5,64.5 Z"/></g>
<g><path style="opacity:0.918" fill="#6d6d6d" d="M 7.5,64.5 C 8.5,64.5 9.5,64.5 10.5,64.5C 10.3784,68.298 10.7117,71.9647 11.5,75.5C 10.1667,75.5 8.83333,75.5 7.5,75.5C 7.5,71.8333 7.5,68.1667 7.5,64.5 Z"/></g>
<g><path style="opacity:0.926" fill="#696969" d="M 10.5,64.5 C 15.5,64.5 20.5,64.5 25.5,64.5C 25.5452,68.2484 25.2119,71.9151 24.5,75.5C 20.1667,75.5 15.8333,75.5 11.5,75.5C 10.7117,71.9647 10.3784,68.298 10.5,64.5 Z"/></g>
<g><path style="opacity:0.903" fill="#6d6d6d" d="M 25.5,64.5 C 26.1667,64.5 26.8333,64.5 27.5,64.5C 27.244,68.2693 27.5773,71.9359 28.5,75.5C 27.1667,75.5 25.8333,75.5 24.5,75.5C 25.2119,71.9151 25.5452,68.2484 25.5,64.5 Z"/></g>
<g><path style="opacity:0.934" fill="#737373" d="M 27.5,64.5 C 28.1667,64.5 28.8333,64.5 29.5,64.5C 29.5,68.1667 29.5,71.8333 29.5,75.5C 29.1667,75.5 28.8333,75.5 28.5,75.5C 27.5773,71.9359 27.244,68.2693 27.5,64.5 Z"/></g>
<g><path style="opacity:0.936" fill="#7e7e7e" d="M 29.5,64.5 C 30.1667,64.5 30.8333,64.5 31.5,64.5C 32.7668,68.2009 32.7668,71.8676 31.5,75.5C 30.8333,75.5 30.1667,75.5 29.5,75.5C 29.5,71.8333 29.5,68.1667 29.5,64.5 Z"/></g>
<g><path style="opacity:0.923" fill="#868686" d="M 31.5,64.5 C 32.1667,64.5 32.8333,64.5 33.5,64.5C 33.756,68.2693 33.4227,71.9359 32.5,75.5C 32.1667,75.5 31.8333,75.5 31.5,75.5C 32.7668,71.8676 32.7668,68.2009 31.5,64.5 Z"/></g>
<g><path style="opacity:0.895" fill="#8e8e8e" d="M 33.5,64.5 C 33.8333,64.5 34.1667,64.5 34.5,64.5C 34.5,68.1667 34.5,71.8333 34.5,75.5C 33.8333,75.5 33.1667,75.5 32.5,75.5C 33.4227,71.9359 33.756,68.2693 33.5,64.5 Z"/></g>
<g><path style="opacity:0.92" fill="#989898" d="M 34.5,64.5 C 35.1667,64.5 35.8333,64.5 36.5,64.5C 36.5,68.1667 36.5,71.8333 36.5,75.5C 35.8333,75.5 35.1667,75.5 34.5,75.5C 34.5,71.8333 34.5,68.1667 34.5,64.5 Z"/></g>
<g><path style="opacity:0.92" fill="#a4a4a4" d="M 36.5,64.5 C 37.1667,64.5 37.8333,64.5 38.5,64.5C 38.5,68.1667 38.5,71.8333 38.5,75.5C 37.8333,75.5 37.1667,75.5 36.5,75.5C 36.5,71.8333 36.5,68.1667 36.5,64.5 Z"/></g>
<g><path style="opacity:0.92" fill="#c1c1c1" d="M 40.5,64.5 C 41.1667,64.5 41.8333,64.5 42.5,64.5C 42.5,68.1667 42.5,71.8333 42.5,75.5C 41.8333,75.5 41.1667,75.5 40.5,75.5C 40.5,71.8333 40.5,68.1667 40.5,64.5 Z"/></g>
<g><path style="opacity:0.92" fill="#d0d0d0" d="M 42.5,64.5 C 43.1667,64.5 43.8333,64.5 44.5,64.5C 44.5,68.1667 44.5,71.8333 44.5,75.5C 43.8333,75.5 43.1667,75.5 42.5,75.5C 42.5,71.8333 42.5,68.1667 42.5,64.5 Z"/></g>
<g><path style="opacity:0.297" fill="#dbdbdb" d="M 44.5,64.5 C 45.7868,65.8714 46.4535,67.7047 46.5,70C 46.4535,72.2953 45.7868,74.1286 44.5,75.5C 44.5,71.8333 44.5,68.1667 44.5,64.5 Z"/></g>
<g><path style="opacity:1" fill="#7c7d7c" d="M -0.5,65.5 C 0.693482,65.9704 1.36015,66.9704 1.5,68.5C 0.93186,70.2044 0.93186,71.7044 1.5,73C 0.905578,73.4643 0.238911,73.631 -0.5,73.5C -0.5,70.8333 -0.5,68.1667 -0.5,65.5 Z"/></g>
<g><path style="opacity:1" fill="#b2b2b2" d="M 38.5,64.5 C 39.1667,64.5 39.8333,64.5 40.5,64.5C 40.5,68.1667 40.5,71.8333 40.5,75.5C 39.8333,75.5 39.1667,75.5 38.5,75.5C 38.5,71.8333 38.5,68.1667 38.5,64.5 Z"/></g>
<g><path style="opacity:0.908" fill="#7a7a7a" d="M -0.5,80.5 C 1.16667,80.5 2.83333,80.5 4.5,80.5C 3.89508,84.0183 3.89508,87.685 4.5,91.5C 2.83333,91.5 1.16667,91.5 -0.5,91.5C -0.5,87.8333 -0.5,84.1667 -0.5,80.5 Z"/></g>
<g><path style="opacity:0.922" fill="#737373" d="M 4.5,80.5 C 5.5,80.5 6.5,80.5 7.5,80.5C 7.5,84.1667 7.5,87.8333 7.5,91.5C 6.5,91.5 5.5,91.5 4.5,91.5C 3.89508,87.685 3.89508,84.0183 4.5,80.5 Z"/></g>
<g><path style="opacity:0.936" fill="#6d6d6d" d="M 7.5,80.5 C 8.16667,80.5 8.83333,80.5 9.5,80.5C 11.2342,83.2374 11.5675,86.0707 10.5,89C 11.3805,89.7083 12.0472,90.5416 12.5,91.5C 10.8333,91.5 9.16667,91.5 7.5,91.5C 7.5,87.8333 7.5,84.1667 7.5,80.5 Z"/></g>
<g><path style="opacity:0.918" fill="#696969" d="M 9.5,80.5 C 14.8333,80.5 20.1667,80.5 25.5,80.5C 24.7117,84.2474 24.3784,87.9141 24.5,91.5C 20.5,91.5 16.5,91.5 12.5,91.5C 12.0472,90.5416 11.3805,89.7083 10.5,89C 11.5675,86.0707 11.2342,83.2374 9.5,80.5 Z"/></g>
<g><path style="opacity:0.925" fill="#6d6d6d" d="M 25.5,80.5 C 26.1667,80.5 26.8333,80.5 27.5,80.5C 27.5,84.1667 27.5,87.8333 27.5,91.5C 26.5,91.5 25.5,91.5 24.5,91.5C 24.3784,87.9141 24.7117,84.2474 25.5,80.5 Z"/></g>
<g><path style="opacity:0.943" fill="#737373" d="M 27.5,80.5 C 27.8333,80.5 28.1667,80.5 28.5,80.5C 29.369,84.2782 29.7023,87.9449 29.5,91.5C 28.8333,91.5 28.1667,91.5 27.5,91.5C 27.5,87.8333 27.5,84.1667 27.5,80.5 Z"/></g>
<g><path style="opacity:0.884" fill="#7a7a7a" d="M 28.5,80.5 C 29.1667,80.5 29.8333,80.5 30.5,80.5C 30.5,84.1667 30.5,87.8333 30.5,91.5C 30.1667,91.5 29.8333,91.5 29.5,91.5C 29.7023,87.9449 29.369,84.2782 28.5,80.5 Z"/></g>
<g><path style="opacity:0.932" fill="#7f7f7f" d="M 30.5,80.5 C 30.8333,80.5 31.1667,80.5 31.5,80.5C 31.745,84.2208 31.745,87.8875 31.5,91.5C 31.1667,91.5 30.8333,91.5 30.5,91.5C 30.5,87.8333 30.5,84.1667 30.5,80.5 Z"/></g>
<g><path style="opacity:0.912" fill="#868686" d="M 31.5,80.5 C 32.1667,80.5 32.8333,80.5 33.5,80.5C 33.5,84.1667 33.5,87.8333 33.5,91.5C 32.8333,91.5 32.1667,91.5 31.5,91.5C 31.745,87.8875 31.745,84.2208 31.5,80.5 Z"/></g>
<g><path style="opacity:0.92" fill="#929292" d="M 33.5,80.5 C 34.1667,80.5 34.8333,80.5 35.5,80.5C 35.5,84.1667 35.5,87.8333 35.5,91.5C 34.8333,91.5 34.1667,91.5 33.5,91.5C 33.5,87.8333 33.5,84.1667 33.5,80.5 Z"/></g>
<g><path style="opacity:0.92" fill="#9e9e9e" d="M 35.5,80.5 C 36.1667,80.5 36.8333,80.5 37.5,80.5C 37.5,84.1667 37.5,87.8333 37.5,91.5C 36.8333,91.5 36.1667,91.5 35.5,91.5C 35.5,87.8333 35.5,84.1667 35.5,80.5 Z"/></g>
<g><path style="opacity:0.92" fill="#ababab" d="M 37.5,80.5 C 38.1667,80.5 38.8333,80.5 39.5,80.5C 39.5,84.1667 39.5,87.8333 39.5,91.5C 38.8333,91.5 38.1667,91.5 37.5,91.5C 37.5,87.8333 37.5,84.1667 37.5,80.5 Z"/></g>
<g><path style="opacity:0.92" fill="#c8c8c8" d="M 41.5,80.5 C 42.1667,80.5 42.8333,80.5 43.5,80.5C 43.5,84.1667 43.5,87.8333 43.5,91.5C 42.8333,91.5 42.1667,91.5 41.5,91.5C 41.5,87.8333 41.5,84.1667 41.5,80.5 Z"/></g>
<g><path style="opacity:0.327" fill="#d8d8d8" d="M 43.5,80.5 C 44.5,80.5 45.5,80.5 46.5,80.5C 46.5,84.1667 46.5,87.8333 46.5,91.5C 45.5,91.5 44.5,91.5 43.5,91.5C 43.5,87.8333 43.5,84.1667 43.5,80.5 Z"/></g>
<g><path style="opacity:1" fill="#b7b7b7" d="M 39.5,80.5 C 40.1667,80.5 40.8333,80.5 41.5,80.5C 41.5,84.1667 41.5,87.8333 41.5,91.5C 40.8333,91.5 40.1667,91.5 39.5,91.5C 39.5,87.8333 39.5,84.1667 39.5,80.5 Z"/></g>
</svg>
