<svg width="16" height="16" viewBox="0 0 16 16" fill="none" xmlns="http://www.w3.org/2000/svg">
<g clip-path="url(#clip0_9473_2200)">
<path d="M8 14H3.33333C2.97971 14 2.64057 13.8595 2.39052 13.6095C2.14048 13.3594 2 13.0203 2 12.6667V3.33333C2 2.97971 2.14048 2.64057 2.39052 2.39052C2.64057 2.14048 2.97971 2 3.33333 2H12.6667C13.0203 2 13.3594 2.14048 13.6095 2.39052C13.8595 2.64057 14 2.97971 14 3.33333V8" stroke="#222222" stroke-width="1.5" stroke-linecap="round" stroke-linejoin="round"/>
<path d="M2 6.66663H14" stroke="#222222" stroke-width="1.5" stroke-linecap="round" stroke-linejoin="round"/>
<path d="M6.66675 2V14" stroke="#222222" stroke-width="1.5" stroke-linecap="round" stroke-linejoin="round"/>
<path d="M11.334 12.6667C11.334 13.0203 11.4745 13.3595 11.7245 13.6095C11.9746 13.8596 12.3137 14 12.6673 14C13.0209 14 13.3601 13.8596 13.6101 13.6095C13.8602 13.3595 14.0007 13.0203 14.0007 12.6667C14.0007 12.3131 13.8602 11.9739 13.6101 11.7239C13.3601 11.4739 13.0209 11.3334 12.6673 11.3334C12.3137 11.3334 11.9746 11.4739 11.7245 11.7239C11.4745 11.9739 11.334 12.3131 11.334 12.6667Z" stroke="#222222" stroke-width="1.5" stroke-linecap="round" stroke-linejoin="round"/>
<path d="M12.6672 10.3334V11.3334" stroke="#222222" stroke-width="1.5" stroke-linecap="round" stroke-linejoin="round"/>
<path d="M12.6672 14V15" stroke="#222222" stroke-width="1.5" stroke-linecap="round" stroke-linejoin="round"/>
<path d="M14.688 11.5L13.822 12" stroke="#222222" stroke-width="1.5" stroke-linecap="round" stroke-linejoin="round"/>
<path d="M11.5134 13.3334L10.6467 13.8334" stroke="#222222" stroke-width="1.5" stroke-linecap="round" stroke-linejoin="round"/>
<path d="M10.6467 11.5L11.5134 12" stroke="#222222" stroke-width="1.5" stroke-linecap="round" stroke-linejoin="round"/>
<path d="M13.822 13.3334L14.6887 13.8334" stroke="#222222" stroke-width="1.5" stroke-linecap="round" stroke-linejoin="round"/>
</g>
<defs>
<clipPath id="clip0_9473_2200">
<rect width="16" height="16" fill="white"/>
</clipPath>
</defs>
</svg>
