<svg width="20" height="20" viewBox="0 0 20 20" fill="none" xmlns="http://www.w3.org/2000/svg">
<g clip-path="url(#clip0_9473_1954)">
<path d="M6.66663 4.16671C6.66663 4.38772 6.75442 4.59968 6.9107 4.75596C7.06698 4.91224 7.27895 5.00004 7.49996 5.00004C7.72097 5.00004 7.93293 4.91224 8.08921 4.75596C8.2455 4.59968 8.33329 4.38772 8.33329 4.16671C8.33329 3.94569 8.2455 3.73373 8.08921 3.57745C7.93293 3.42117 7.72097 3.33337 7.49996 3.33337C7.27895 3.33337 7.06698 3.42117 6.9107 3.57745C6.75442 3.73373 6.66663 3.94569 6.66663 4.16671Z" stroke="#72767A" stroke-width="1.5" stroke-linecap="round" stroke-linejoin="round"/>
<path d="M6.66663 9.99996C6.66663 10.221 6.75442 10.4329 6.9107 10.5892C7.06698 10.7455 7.27895 10.8333 7.49996 10.8333C7.72097 10.8333 7.93293 10.7455 8.08921 10.5892C8.2455 10.4329 8.33329 10.221 8.33329 9.99996C8.33329 9.77895 8.2455 9.56698 8.08921 9.4107C7.93293 9.25442 7.72097 9.16663 7.49996 9.16663C7.27895 9.16663 7.06698 9.25442 6.9107 9.4107C6.75442 9.56698 6.66663 9.77895 6.66663 9.99996Z" stroke="#72767A" stroke-width="1.5" stroke-linecap="round" stroke-linejoin="round"/>
<path d="M6.66663 15.8333C6.66663 16.0543 6.75442 16.2663 6.9107 16.4226C7.06698 16.5789 7.27895 16.6667 7.49996 16.6667C7.72097 16.6667 7.93293 16.5789 8.08921 16.4226C8.2455 16.2663 8.33329 16.0543 8.33329 15.8333C8.33329 15.6123 8.2455 15.4004 8.08921 15.2441C7.93293 15.0878 7.72097 15 7.49996 15C7.27895 15 7.06698 15.0878 6.9107 15.2441C6.75442 15.4004 6.66663 15.6123 6.66663 15.8333Z" stroke="#72767A" stroke-width="1.5" stroke-linecap="round" stroke-linejoin="round"/>
<path d="M11.6666 4.16671C11.6666 4.38772 11.7544 4.59968 11.9107 4.75596C12.067 4.91224 12.2789 5.00004 12.5 5.00004C12.721 5.00004 12.9329 4.91224 13.0892 4.75596C13.2455 4.59968 13.3333 4.38772 13.3333 4.16671C13.3333 3.94569 13.2455 3.73373 13.0892 3.57745C12.9329 3.42117 12.721 3.33337 12.5 3.33337C12.2789 3.33337 12.067 3.42117 11.9107 3.57745C11.7544 3.73373 11.6666 3.94569 11.6666 4.16671Z" stroke="#72767A" stroke-width="1.5" stroke-linecap="round" stroke-linejoin="round"/>
<path d="M11.6666 9.99996C11.6666 10.221 11.7544 10.4329 11.9107 10.5892C12.067 10.7455 12.2789 10.8333 12.5 10.8333C12.721 10.8333 12.9329 10.7455 13.0892 10.5892C13.2455 10.4329 13.3333 10.221 13.3333 9.99996C13.3333 9.77895 13.2455 9.56698 13.0892 9.4107C12.9329 9.25442 12.721 9.16663 12.5 9.16663C12.2789 9.16663 12.067 9.25442 11.9107 9.4107C11.7544 9.56698 11.6666 9.77895 11.6666 9.99996Z" stroke="#72767A" stroke-width="1.5" stroke-linecap="round" stroke-linejoin="round"/>
<path d="M11.6666 15.8333C11.6666 16.0543 11.7544 16.2663 11.9107 16.4226C12.067 16.5789 12.2789 16.6667 12.5 16.6667C12.721 16.6667 12.9329 16.5789 13.0892 16.4226C13.2455 16.2663 13.3333 16.0543 13.3333 15.8333C13.3333 15.6123 13.2455 15.4004 13.0892 15.2441C12.9329 15.0878 12.721 15 12.5 15C12.2789 15 12.067 15.0878 11.9107 15.2441C11.7544 15.4004 11.6666 15.6123 11.6666 15.8333Z" stroke="#72767A" stroke-width="1.5" stroke-linecap="round" stroke-linejoin="round"/>
</g>
<defs>
<clipPath id="clip0_9473_1954">
<rect width="20" height="20" fill="white"/>
</clipPath>
</defs>
</svg>
