<svg width="20" height="20" viewBox="0 0 20 20" fill="none" xmlns="http://www.w3.org/2000/svg">
<g clip-path="url(#clip0_9473_1883)">
<path d="M3.33325 16.6666H6.66659L15.4166 7.91663C15.6355 7.69776 15.8091 7.43793 15.9275 7.15196C16.046 6.86599 16.1069 6.5595 16.1069 6.24997C16.1069 5.94044 16.046 5.63394 15.9275 5.34797C15.8091 5.06201 15.6355 4.80217 15.4166 4.5833C15.1977 4.36443 14.9379 4.19081 14.6519 4.07236C14.3659 3.95391 14.0594 3.89294 13.7499 3.89294C13.4404 3.89294 13.1339 3.95391 12.8479 4.07236C12.562 4.19081 12.3021 4.36443 12.0833 4.5833L3.33325 13.3333V16.6666Z" stroke="#828282" stroke-width="1.5" stroke-linecap="round" stroke-linejoin="round"/>
<path d="M11.25 5.41663L14.5833 8.74996" stroke="#828282" stroke-width="1.5" stroke-linecap="round" stroke-linejoin="round"/>
</g>
<defs>
<clipPath id="clip0_9473_1883">
<rect width="20" height="20" fill="white"/>
</clipPath>
</defs>
</svg>
