<svg width="118" height="44" viewBox="0 0 118 44" fill="none" xmlns="http://www.w3.org/2000/svg">
<path d="M22.2707 27.2455C21.5943 26.9615 21.0571 26.5539 20.6652 26.0229C20.2733 25.4919 20.071 24.8621 20.0584 24.1397H22.6689C22.7068 24.6275 22.8775 25.0103 23.1998 25.2943C23.5159 25.5784 23.9583 25.7204 24.5146 25.7204C25.0835 25.7204 25.5259 25.5845 25.8546 25.319C26.177 25.0535 26.3413 24.7078 26.3413 24.2755C26.3413 23.9236 26.2338 23.6334 26.0126 23.4111C25.7914 23.1826 25.5196 23.0036 25.1846 22.8739C24.8559 22.7442 24.4008 22.6022 23.8193 22.4417C23.0292 22.2132 22.3908 21.9909 21.8977 21.7687C21.4047 21.5464 20.9812 21.2129 20.6273 20.7684C20.2733 20.3238 20.0963 19.7249 20.0963 18.9778C20.0963 18.2739 20.2733 17.6626 20.6336 17.1439C20.9939 16.6252 21.4995 16.2239 22.1443 15.946C22.7953 15.6682 23.5348 15.5323 24.3692 15.5323C25.6207 15.5323 26.6384 15.8287 27.4222 16.4215C28.206 17.0142 28.6358 17.8478 28.7179 18.9098H26.0379C26.0126 18.5023 25.8356 18.1627 25.507 17.8972C25.1783 17.6317 24.7421 17.4959 24.1922 17.4959C23.7182 17.4959 23.3389 17.6132 23.0545 17.854C22.77 18.0948 22.631 18.4344 22.631 18.8913C22.631 19.2062 22.7384 19.4717 22.9533 19.6817C23.1682 19.8916 23.4337 20.0583 23.7561 20.1941C24.0721 20.3238 24.5209 20.472 25.1024 20.6449C25.8925 20.8733 26.5309 21.0956 27.0303 21.3241C27.5296 21.5525 27.9594 21.8922 28.3197 22.3429C28.68 22.7936 28.857 23.3926 28.857 24.1273C28.857 24.7633 28.6863 25.3499 28.3513 25.8933C28.0163 26.4366 27.5233 26.8688 26.8723 27.1899C26.2212 27.511 25.4501 27.6715 24.5588 27.6715C23.7118 27.6715 22.947 27.5295 22.2707 27.2455Z" fill="white"/>
<path d="M39.6465 23.5592H32.6051C32.662 24.2384 32.9085 24.7694 33.3383 25.1584C33.7681 25.5412 34.2928 25.7388 34.9185 25.7388C35.8224 25.7388 36.4671 25.3622 36.8464 24.6027H39.4695C39.1914 25.5103 38.6605 26.2513 37.8704 26.8379C37.0803 27.4183 36.1132 27.7147 34.9691 27.7147C34.0399 27.7147 33.2119 27.5109 32.4724 27.1096C31.7391 26.7082 31.1639 26.1401 30.7531 25.4054C30.3422 24.6706 30.1336 23.8185 30.1336 22.8553C30.1336 21.8797 30.3359 21.0276 30.7404 20.2928C31.145 19.5581 31.7139 18.99 32.4471 18.5948C33.1803 18.1997 34.0146 18.0021 34.9691 18.0021C35.8856 18.0021 36.7073 18.1935 37.4279 18.5825C38.1548 18.9653 38.7174 19.5148 39.1156 20.2187C39.5138 20.9288 39.7161 21.7377 39.7161 22.6577C39.7161 22.9849 39.6908 23.2875 39.6465 23.5592ZM37.194 21.9661C37.1814 21.3549 36.9538 20.8671 36.5177 20.4966C36.0752 20.1261 35.538 19.9471 34.8996 19.9471C34.2991 19.9471 33.7871 20.1261 33.3762 20.4843C32.9654 20.8424 32.7126 21.3363 32.6177 21.9723H37.194V21.9661Z" fill="white"/>
<path d="M41.2827 20.2931C41.6872 19.5645 42.2498 18.9964 42.9704 18.5951C43.691 18.1938 44.5127 17.99 45.4418 17.99C46.6365 17.99 47.6225 18.2802 48.4063 18.8668C49.1901 19.4472 49.7147 20.2684 49.9802 21.3181H47.357C47.218 20.9106 46.9841 20.5895 46.6554 20.361C46.3267 20.1264 45.9159 20.0152 45.4292 20.0152C44.7339 20.0152 44.184 20.2622 43.7794 20.7562C43.3749 21.2502 43.1726 21.9479 43.1726 22.8555C43.1726 23.7509 43.3749 24.4424 43.7794 24.9364C44.184 25.4303 44.7339 25.6773 45.4292 25.6773C46.4152 25.6773 47.06 25.2451 47.357 24.3868H49.9802C49.7147 25.4056 49.1838 26.2145 48.4 26.8134C47.6099 27.4124 46.6238 27.7149 45.4418 27.7149C44.5127 27.7149 43.691 27.5112 42.9704 27.1098C42.2498 26.7085 41.6872 26.1404 41.2827 25.4118C40.8782 24.6832 40.6759 23.8311 40.6759 22.8555C40.6696 21.8738 40.8719 21.0217 41.2827 20.2931Z" fill="white"/>
<path d="M60.6625 18.1444V27.5544H58.21V26.3627C57.894 26.7702 57.4895 27.0913 56.9838 27.3198C56.4781 27.5544 55.9345 27.6655 55.3404 27.6655C54.5882 27.6655 53.9182 27.5112 53.343 27.1963C52.7615 26.8875 52.3064 26.4245 51.9777 25.8194C51.649 25.2142 51.4847 24.4918 51.4847 23.6521V18.132H53.9182V23.3125C53.9182 24.0596 54.1078 24.6338 54.4934 25.0352C54.8726 25.4365 55.3973 25.6403 56.061 25.6403C56.731 25.6403 57.2619 25.4365 57.6412 25.0352C58.0267 24.6338 58.2164 24.0596 58.2164 23.3125V18.132H60.6625V18.1444Z" fill="white"/>
<path d="M66.536 18.4347C67.0417 18.1507 67.6169 18.0087 68.2679 18.0087V20.5032H67.6232C66.8584 20.5032 66.2832 20.6761 65.8913 21.028C65.5057 21.38 65.3098 21.9913 65.3098 22.8619V27.5484H62.8762V18.1445H65.3098V19.6079C65.6195 19.1077 66.0304 18.7126 66.536 18.4347Z" fill="white"/>
<path d="M78.5893 23.5592H71.5478C71.6047 24.2384 71.8512 24.7694 72.2811 25.1584C72.7109 25.5412 73.2355 25.7388 73.8613 25.7388C74.7651 25.7388 75.4099 25.3622 75.7891 24.6027H78.4123C78.1342 25.5103 77.6032 26.2513 76.8131 26.8379C76.023 27.4183 75.0559 27.7147 73.9118 27.7147C72.9827 27.7147 72.1546 27.5109 71.4151 27.1096C70.6819 26.7082 70.1067 26.1401 69.6958 25.4054C69.285 24.6706 69.0764 23.8185 69.0764 22.8553C69.0764 21.8797 69.2787 21.0276 69.6832 20.2928C70.0877 19.5581 70.6566 18.99 71.3898 18.5948C72.123 18.1997 72.9574 18.0021 73.9118 18.0021C74.8284 18.0021 75.6501 18.1935 76.3706 18.5825C77.0975 18.9653 77.6601 19.5148 78.0583 20.2187C78.4565 20.9288 78.6588 21.7377 78.6588 22.6577C78.6588 22.9849 78.6335 23.2875 78.5893 23.5592ZM76.1368 21.9661C76.1241 21.3549 75.8966 20.8671 75.4604 20.4966C75.018 20.1261 74.4807 19.9471 73.8423 19.9471C73.2418 19.9471 72.7298 20.1261 72.319 20.4843C71.9081 20.8424 71.6553 21.3363 71.5605 21.9723H76.1368V21.9661Z" fill="white"/>
<path d="M82.1416 27.2455C81.4653 26.9615 80.928 26.5539 80.5361 26.0229C80.1442 25.4919 79.942 24.8621 79.9293 24.1397H82.5398C82.5778 24.6275 82.7484 25.0103 83.0708 25.2943C83.3868 25.5784 83.8293 25.7204 84.3855 25.7204C84.9544 25.7204 85.3969 25.5845 85.7255 25.319C86.0479 25.0535 86.2122 24.7078 86.2122 24.2755C86.2122 23.9236 86.1048 23.6334 85.8836 23.4111C85.6623 23.1826 85.3905 23.0036 85.0555 22.8739C84.7268 22.7442 84.2717 22.6022 83.6902 22.4417C82.9001 22.2132 82.2617 21.9909 81.7687 21.7687C81.2757 21.5464 80.8522 21.2129 80.4982 20.7684C80.1442 20.3238 79.9673 19.7249 79.9673 18.9778C79.9673 18.2739 80.1442 17.6626 80.5045 17.1439C80.8648 16.6252 81.3705 16.2239 82.0152 15.946C82.6662 15.6682 83.4058 15.5323 84.2401 15.5323C85.4917 15.5323 86.5093 15.8287 87.2931 16.4215C88.0769 17.0142 88.5067 17.8478 88.5889 18.9098H85.9088C85.8836 18.5023 85.7066 18.1627 85.3779 17.8972C85.0492 17.6317 84.6131 17.4959 84.0632 17.4959C83.5891 17.4959 83.2098 17.6132 82.9254 17.854C82.641 18.0948 82.5019 18.4344 82.5019 18.8913C82.5019 19.2062 82.6094 19.4717 82.8243 19.6817C83.0392 19.8916 83.3047 20.0583 83.627 20.1941C83.9431 20.3238 84.3918 20.472 84.9734 20.6449C85.7635 20.8733 86.4019 21.0956 86.9012 21.3241C87.4006 21.5525 87.8304 21.8922 88.1907 22.3429C88.551 22.7936 88.7279 23.3926 88.7279 24.1273C88.7279 24.7633 88.5573 25.3499 88.2223 25.8933C87.8873 26.4366 87.3942 26.8688 86.7432 27.1899C86.0921 27.511 85.321 27.6715 84.4298 27.6715C83.5828 27.6715 82.8243 27.5295 82.1416 27.2455Z" fill="white"/>
<path d="M93.4677 20.0954V24.646C93.4677 24.9609 93.5435 25.1894 93.7015 25.3314C93.8596 25.4734 94.1187 25.5413 94.4916 25.5413H95.6231V27.5481H94.0934C92.0392 27.5481 91.0152 26.5725 91.0152 24.6275V20.0954H89.8711V18.1442H91.0215V15.8164H93.474V18.1442H95.6294V20.0954H93.4677Z" fill="white"/>
<path d="M97.1471 20.2808C97.5327 19.546 98.0637 18.9779 98.7273 18.5827C99.391 18.1876 100.137 17.99 100.959 17.99C101.679 17.99 102.305 18.132 102.842 18.416C103.379 18.7001 103.816 19.0582 104.138 19.4842V18.1444H106.59V27.5544H104.138V26.1775C103.822 26.622 103.392 26.9863 102.842 27.2704C102.292 27.5606 101.654 27.7026 100.94 27.7026C100.131 27.7026 99.391 27.4988 98.721 27.0913C98.0573 26.6838 97.5264 26.1095 97.1408 25.3686C96.7552 24.6276 96.5593 23.7756 96.5593 22.8123C96.5656 21.8614 96.7552 21.0217 97.1471 20.2808ZM103.797 21.3613C103.563 20.9476 103.253 20.6327 102.855 20.4104C102.463 20.1881 102.039 20.077 101.584 20.077C101.129 20.077 100.712 20.182 100.333 20.3981C99.9536 20.6142 99.6376 20.9291 99.4037 21.3428C99.1635 21.7565 99.0497 22.2443 99.0497 22.8123C99.0497 23.3804 99.1698 23.8743 99.4037 24.3004C99.6439 24.7264 99.9536 25.0475 100.345 25.276C100.731 25.5044 101.148 25.6156 101.591 25.6156C102.046 25.6156 102.463 25.5044 102.861 25.2821C103.253 25.0599 103.569 24.745 103.803 24.3313C104.037 23.9176 104.151 23.4236 104.151 22.8432C104.151 22.2628 104.031 21.775 103.797 21.3613Z" fill="white"/>
<path d="M118 18.1444L112.04 32.0001H109.448L111.534 27.3136L107.672 18.1444H110.402L112.887 24.7141L115.409 18.1444H118Z" fill="white"/>
<path d="M15.416 25.2207H0.0127038C0.00637277 25.2207 4.19617e-05 25.2143 4.19617e-05 25.2078V21.8559C4.19617e-05 21.8494 0.00637277 21.843 0.0127038 21.843H15.416C15.4224 21.843 15.4287 21.8494 15.4287 21.8559V25.2078C15.4287 25.2143 15.4224 25.2207 15.416 25.2207Z" fill="url(#paint0_linear_1_2)"/>
<path d="M15.2894 30.5902H0.139324C0.0633518 30.5902 4.19617e-05 30.5257 4.19617e-05 30.4484V27.2189C4.19617e-05 27.2125 0.00637277 27.206 0.0127038 27.206H15.416C15.4224 27.206 15.4287 27.2125 15.4287 27.2189V30.4484C15.4287 30.5257 15.3654 30.5902 15.2894 30.5902Z" fill="url(#paint1_linear_1_2)"/>
<path d="M15.3272 20.4507H12.7884V19.7546C12.7884 16.9054 10.5093 14.5849 7.71096 14.5849C4.91266 14.5849 2.6335 16.9054 2.6335 19.7546V20.4507H0.0947647V19.7546C0.0947647 15.4808 3.51351 12 7.71096 12C11.9084 12 15.3272 15.4808 15.3272 19.7546V20.4507Z" fill="url(#paint2_linear_1_2)"/>
<defs>
<linearGradient id="paint0_linear_1_2" x1="0.000434484" y1="23.532" x2="15.4268" y2="23.532" gradientUnits="userSpaceOnUse">
<stop offset="0.0310497" stop-color="#7D7D7D"/>
<stop offset="0.0723114" stop-color="#797979"/>
<stop offset="0.2537" stop-color="#6A6A6A"/>
<stop offset="0.5457" stop-color="#6A6A6A"/>
<stop offset="0.6129" stop-color="#717171"/>
<stop offset="0.713" stop-color="#868686"/>
<stop offset="0.8336" stop-color="#A7A7A7"/>
<stop offset="0.9693" stop-color="#D5D5D5"/>
<stop offset="1" stop-color="#E0E0E0"/>
</linearGradient>
<linearGradient id="paint1_linear_1_2" x1="0.000434484" y1="28.9" x2="15.4268" y2="28.9" gradientUnits="userSpaceOnUse">
<stop offset="0.0310497" stop-color="#7D7D7D"/>
<stop offset="0.0723114" stop-color="#797979"/>
<stop offset="0.2537" stop-color="#6A6A6A"/>
<stop offset="0.5457" stop-color="#6A6A6A"/>
<stop offset="0.6129" stop-color="#717171"/>
<stop offset="0.713" stop-color="#868686"/>
<stop offset="0.8336" stop-color="#A7A7A7"/>
<stop offset="0.9693" stop-color="#D5D5D5"/>
<stop offset="1" stop-color="#E0E0E0"/>
</linearGradient>
<linearGradient id="paint2_linear_1_2" x1="0.0978289" y1="16.2256" x2="15.3289" y2="16.2256" gradientUnits="userSpaceOnUse">
<stop offset="0.0310497" stop-color="#7D7D7D"/>
<stop offset="0.0723114" stop-color="#797979"/>
<stop offset="0.2537" stop-color="#6A6A6A"/>
<stop offset="0.5457" stop-color="#6A6A6A"/>
<stop offset="0.6129" stop-color="#717171"/>
<stop offset="0.713" stop-color="#868686"/>
<stop offset="0.8336" stop-color="#A7A7A7"/>
<stop offset="0.9693" stop-color="#D5D5D5"/>
<stop offset="1" stop-color="#E0E0E0"/>
</linearGradient>
</defs>
</svg>
